<svg xmlns="http://www.w3.org/2000/svg" xmlns:xlink="http://www.w3.org/1999/xlink" width="500" zoomAndPan="magnify" viewBox="0 0 375 374.999991" height="500" preserveAspectRatio="xMidYMid meet" version="1.0"><defs><g/><clipPath id="7a76881c82"><path d="M 5 12 L 353 12 L 353 370 L 5 370 Z M 5 12 " clip-rule="nonzero"/></clipPath><clipPath id="1f9d92beef"><path d="M 217.390625 -108.472656 L 487.464844 133.117188 L 276.070312 369.433594 L 5.996094 127.839844 Z M 217.390625 -108.472656 " clip-rule="nonzero"/></clipPath><clipPath id="8d783a38a4"><path d="M 352.425781 12.324219 L 276.070312 369.433594 L 5.996094 127.839844 Z M 352.425781 12.324219 " clip-rule="nonzero"/></clipPath></defs><rect x="-37.5" width="450" fill="#ffffff" y="-37.499999" height="449.999989" fill-opacity="1"/><rect x="-37.5" width="450" fill="#020301" y="-37.499999" height="449.999989" fill-opacity="1"/><g clip-path="url(#7a76881c82)"><g clip-path="url(#1f9d92beef)"><g clip-path="url(#8d783a38a4)"><path fill="#16161d" d="M 217.390625 -108.472656 L 487.464844 133.117188 L 276.070312 369.433594 L 5.996094 127.839844 Z M 217.390625 -108.472656 " fill-opacity="1" fill-rule="nonzero"/></g></g></g><g fill="#ffffff" fill-opacity="1"><g transform="translate(7.384075, 239.249984)"><g><path d="M 29.71875 -88.890625 L 29.71875 -53.5 L 80.625 -53.5 L 80.625 -41.03125 L 29.71875 -41.03125 L 29.71875 0 L 15.21875 0 L 15.21875 -101.5 L 86.859375 -101.5 L 86.859375 -88.890625 Z M 29.71875 -88.890625 "/></g></g></g><g fill="#ffffff" fill-opacity="1"><g transform="translate(88.146616, 239.249984)"><g><path d="M 15.21875 -101.5 L 29.71875 -101.5 L 29.71875 -12.609375 L 84.6875 -12.609375 L 84.6875 0 L 15.21875 0 Z M 15.21875 -101.5 "/></g></g></g><g fill="#ffffff" fill-opacity="1"><g transform="translate(162.964319, 239.249984)"><g><path d="M 79.890625 -25.375 L 25.953125 -25.375 L 14.796875 0 L -0.140625 0 L 45.8125 -101.5 L 60.171875 -101.5 L 106.28125 0 L 91.0625 0 Z M 74.8125 -36.96875 L 52.921875 -86.703125 L 31.03125 -36.96875 Z M 74.8125 -36.96875 "/></g></g></g><g fill="#ffffff" fill-opacity="1"><g transform="translate(257.791499, 239.249984)"><g><path d="M 35.375 -88.890625 L 0.578125 -88.890625 L 0.578125 -101.5 L 84.53125 -101.5 L 84.53125 -88.890625 L 49.734375 -88.890625 L 49.734375 0 L 35.375 0 Z M 35.375 -88.890625 "/></g></g></g><g fill="#ffffff" fill-opacity="1"><g transform="translate(322.981126, 238.012441)"><g><path d="M 16.640625 -16.140625 C 16.640625 -18.078125 16.96875 -19.785156 17.625 -21.265625 C 18.28125 -22.753906 19.082031 -24.007812 20.03125 -25.03125 C 20.988281 -26.0625 22.242188 -27.28125 23.796875 -28.6875 C 25.742188 -30.394531 27.175781 -31.867188 28.09375 -33.109375 C 29.019531 -34.347656 29.484375 -35.84375 29.484375 -37.59375 C 29.484375 -39.976562 28.554688 -41.890625 26.703125 -43.328125 C 24.859375 -44.765625 22.304688 -45.484375 19.046875 -45.484375 C 13.359375 -45.484375 9.003906 -43.5625 5.984375 -39.71875 L 0.65625 -43.515625 C 2.695312 -46.140625 5.3125 -48.15625 8.5 -49.5625 C 11.6875 -50.976562 15.375 -51.6875 19.5625 -51.6875 C 24.863281 -51.6875 29.070312 -50.53125 32.1875 -48.21875 C 35.300781 -45.90625 36.859375 -42.726562 36.859375 -38.6875 C 36.859375 -36.695312 36.53125 -34.929688 35.875 -33.390625 C 35.21875 -31.859375 34.425781 -30.582031 33.5 -29.5625 C 32.582031 -28.539062 31.34375 -27.328125 29.78125 -25.921875 C 27.789062 -24.117188 26.316406 -22.535156 25.359375 -21.171875 C 24.410156 -19.804688 23.9375 -18.128906 23.9375 -16.140625 Z M 20.359375 0.4375 C 19.003906 0.4375 17.875 -0.0078125 16.96875 -0.90625 C 16.070312 -1.8125 15.625 -2.921875 15.625 -4.234375 C 15.625 -5.546875 16.070312 -6.648438 16.96875 -7.546875 C 17.875 -8.453125 19.003906 -8.90625 20.359375 -8.90625 C 21.722656 -8.90625 22.84375 -8.453125 23.71875 -7.546875 C 24.59375 -6.648438 25.03125 -5.546875 25.03125 -4.234375 C 25.03125 -2.921875 24.582031 -1.8125 23.6875 -0.90625 C 22.789062 -0.0078125 21.679688 0.4375 20.359375 0.4375 Z M 20.359375 0.4375 "/></g></g></g></svg>